<svg xmlns="http://www.w3.org/2000/svg" class="graphdiagram" viewBox="-499.7502124942733 -414.375417568622 1440 699"><g class="layer relationships"><g class="related-pair"><g class="relationship" transform="translate(-30.999999999999996,-231.4586067753047) rotate(0)"><path class="relationship" d="M 29.128932797192288 1 L 565.0281742072284 1 L 565.0281742072284 4 L 573.0281742072284 0 L 565.0281742072284 -4 L 565.0281742072284 -1 L 29.128932797192288 -1 Z" fill="rgba(0, 0, 0, 0.3)" stroke="rgb(51, 51, 51)" stroke-width="0px"/><text class="type" text-anchor="middle" baseline-shift="30%" alignment-baseline="alphabetic" x="297.07855350221035" y="0" font-size="14px" font-family="&quot;Helvetica Neue&quot;, Helvetica, Arial, sans-serif">GENE_DISEASE_IXN</text></g></g><g class="related-pair"><g class="relationship" transform="translate(275.75769564115103,121.74553885079757) rotate(-49.375002597012774)"><path class="relationship" d="M 41.12647732119763 1 L 420.63289475079705 1 L 420.63289475079705 4 L 428.63289475079705 0 L 420.63289475079705 -4 L 420.63289475079705 -1 L 41.12647732119763 -1 Z" fill="rgba(0, 0, 0, 0.3)" stroke="rgb(51, 51, 51)" stroke-width="0px"/><text class="type" text-anchor="middle" baseline-shift="30%" alignment-baseline="alphabetic" x="230.87968603599734" y="0" font-size="14px" font-family="&quot;Helvetica Neue&quot;, Helvetica, Arial, sans-serif">CHEMICAL_DISEASE_IXN</text></g></g><g class="related-pair"><g class="relationship" transform="translate(275.75769564115103,121.74553885079757) rotate(-130.9743051881352)"><path class="relationship" d="M 41.12647732119763 1 L 430.68882266163365 1 L 430.68882266163365 4 L 438.68882266163365 0 L 430.68882266163365 -4 L 430.68882266163365 -1 L 41.12647732119763 -1 Z" fill="rgba(0, 0, 0, 0.3)" stroke="rgb(51, 51, 51)" stroke-width="0px"/><text class="type" text-anchor="middle" baseline-shift="30%" alignment-baseline="alphabetic" transform="rotate(180)" x="-235.90764999141564" y="0" font-size="14px" font-family="&quot;Helvetica Neue&quot;, Helvetica, Arial, sans-serif">CHEMICAL_GENE_IXN</text></g></g><g class="related-pair"><g class="relationship" transform="translate(275.75769564115103,121.74553885079757) rotate(0)"><path class="relationship" d="M 41.12647732119763 1 L -33.12647732119763 1 L -33.12647732119763 4 L -41.12647732119763 0 L -33.12647732119763 -4 L -33.12647732119763 -1 L 41.12647732119763 -1 Z" fill="rgba(0, 0, 0, 0.3)" stroke="rgb(51, 51, 51)" stroke-width="0px"/><text class="type" text-anchor="middle" baseline-shift="30%" alignment-baseline="alphabetic" x="4" y="0" font-size="14px" font-family="&quot;Helvetica Neue&quot;, Helvetica, Arial, sans-serif">Parent</text></g></g><g class="related-pair"><g class="relationship" transform="translate(578.7576651235728,-231.4586067753047) rotate(0)"><path class="relationship" d="M 36.729490916344446 1 L -28.729490916344446 1 L -28.729490916344446 4 L -36.729490916344446 0 L -28.729490916344446 -4 L -28.729490916344446 -1 L 36.729490916344446 -1 Z" fill="rgba(0, 0, 0, 0.3)" stroke="rgb(51, 51, 51)" stroke-width="0px"/><text class="type" text-anchor="middle" baseline-shift="30%" alignment-baseline="alphabetic" x="4" y="0" font-size="14px" font-family="&quot;Helvetica Neue&quot;, Helvetica, Arial, sans-serif">Parent</text></g></g></g><g class="layer nodes"><circle class="node node-id-0" r="35.62647732119763" fill="rgb(247, 247, 249)" stroke="rgba(0, 0, 0, 0.3)" stroke-width="1px" cx="275.75769564115103" cy="121.74553885079757"/><circle class="node node-id-1" r="23.628932797192288" fill="rgb(247, 247, 249)" stroke="rgba(0, 0, 0, 0.3)" stroke-width="1px" cx="-30.999999999999996" cy="-231.4586067753047"/><circle class="node node-id-2" r="31.229490916344442" fill="rgb(247, 247, 249)" stroke="rgba(0, 0, 0, 0.3)" stroke-width="1px" cx="578.7576651235728" cy="-231.4586067753047"/><g class="caption"><text class="caption node" text-anchor="middle" alignment-baseline="central" x="275.75769564115103" y="121.74553885079757" fill="rgb(51, 51, 51)" font-size="14px" font-family="&quot;Helvetica Neue&quot;, Helvetica, Arial, sans-serif">Chemical</text></g><g class="caption"><text class="caption node" text-anchor="middle" alignment-baseline="central" x="-30.999999999999996" y="-231.4586067753047" fill="rgb(51, 51, 51)" font-size="14px" font-family="&quot;Helvetica Neue&quot;, Helvetica, Arial, sans-serif">Gene</text></g><g class="caption"><text class="caption node" text-anchor="middle" alignment-baseline="central" x="578.7576651235728" y="-231.4586067753047" fill="rgb(51, 51, 51)" font-size="14px" font-family="&quot;Helvetica Neue&quot;, Helvetica, Arial, sans-serif">Disease</text></g></g><g class="layer properties"><g class="speech-bubble node-speech-bubble" transform="translate(250.56597193754345,146.93726255440515) "><path class="speech-bubble-outline" transform="scale(-1,1) " d="M 0 0 L 16 12 L 185.58175659179688 12 A 4 4 0 0 1 189.58175659179688 16 L 189.58175659179688 44 A 4 4 0 0 1 185.58175659179688 48 L 16 48 A 4 4 0 0 1 12 44 L 12 16 Z" fill="rgb(255, 255, 255)" stroke="rgba(0, 0, 0, 0.5)" stroke-width="1px"/><text class="speech-bubble-content property-key" x="-82.10789489746094" y="23" alignment-baseline="central" text-anchor="end" font-size="14px" font-family="&quot;Helvetica Neue&quot;, Helvetica, Arial, sans-serif" xml:space="preserve">ChemicalID: </text><text class="speech-bubble-content property-value" x="-82.10789489746094" y="23" alignment-baseline="central" font-size="14px" font-family="&quot;Helvetica Neue&quot;, Helvetica, Arial, sans-serif">"Identifier"</text><text class="speech-bubble-content property-key" x="-82.10789489746094" y="37" alignment-baseline="central" text-anchor="end" font-size="14px" font-family="&quot;Helvetica Neue&quot;, Helvetica, Arial, sans-serif" xml:space="preserve">ChemicalName: </text><text class="speech-bubble-content property-value" x="-82.10789489746094" y="37" alignment-baseline="central" font-size="14px" font-family="&quot;Helvetica Neue&quot;, Helvetica, Arial, sans-serif">""</text></g><g class="speech-bubble node-speech-bubble" transform="translate(-47.70817861309588,-248.1667853884006) "><path class="speech-bubble-outline" transform="scale(-1,-1) " d="M 0 0 L 16 12 L 170.7978057861328 12 A 4 4 0 0 1 174.7978057861328 16 L 174.7978057861328 72 A 4 4 0 0 1 170.7978057861328 76 L 16 76 A 4 4 0 0 1 12 72 L 12 16 Z" fill="rgb(255, 255, 255)" stroke="rgba(0, 0, 0, 0.5)" stroke-width="1px"/><text class="speech-bubble-content property-key" x="-82.10789489746094" y="-65" alignment-baseline="central" text-anchor="end" font-size="14px" font-family="&quot;Helvetica Neue&quot;, Helvetica, Arial, sans-serif" xml:space="preserve">GeneID: </text><text class="speech-bubble-content property-key" x="-82.10789489746094" y="-51" alignment-baseline="central" text-anchor="end" font-size="14px" font-family="&quot;Helvetica Neue&quot;, Helvetica, Arial, sans-serif" xml:space="preserve">GeneName: </text><text class="speech-bubble-content property-key" x="-82.10789489746094" y="-37" alignment-baseline="central" text-anchor="end" font-size="14px" font-family="&quot;Helvetica Neue&quot;, Helvetica, Arial, sans-serif" xml:space="preserve">GeneSymbol: </text><text class="speech-bubble-content property-value" x="-82.10789489746094" y="-65" alignment-baseline="central" font-size="14px" font-family="&quot;Helvetica Neue&quot;, Helvetica, Arial, sans-serif">"Identifier"</text><text class="speech-bubble-content property-value" x="-82.10789489746094" y="-51" alignment-baseline="central" font-size="14px" font-family="&quot;Helvetica Neue&quot;, Helvetica, Arial, sans-serif">""</text><text class="speech-bubble-content property-value" x="-82.10789489746094" y="-37" alignment-baseline="central" font-size="14px" font-family="&quot;Helvetica Neue&quot;, Helvetica, Arial, sans-serif">""</text><text class="speech-bubble-content property-key" x="-82.10789489746094" y="-23" alignment-baseline="central" text-anchor="end" font-size="14px" font-family="&quot;Helvetica Neue&quot;, Helvetica, Arial, sans-serif" xml:space="preserve">AltGeneIDs: </text><text class="speech-bubble-content property-value" x="-82.10789489746094" y="-23" alignment-baseline="central" font-size="14px" font-family="&quot;Helvetica Neue&quot;, Helvetica, Arial, sans-serif">""</text></g><g class="speech-bubble node-speech-bubble" transform="translate(578.7576651235728,-262.68809769164915) "><path class="speech-bubble-outline" transform="scale(1,-1) " d="M 0 0 L -4 12 L -80.24789428710938 12 A 4 4 0 0 0 -84.24789428710938 16 L -84.24789428710938 58 A 4 4 0 0 0 -80.24789428710938 62 L 80.24789428710938 62 A 4 4 0 0 0 84.24789428710938 58 L 84.24789428710938 16 A 4 4 0 0 0 80.24789428710938 12 L 4 12 Z" fill="rgb(255, 255, 255)" stroke="rgba(0, 0, 0, 0.5)" stroke-width="1px"/><text class="speech-bubble-content property-key" x="14.139999389648438" y="-51" alignment-baseline="central" text-anchor="end" font-size="14px" font-family="&quot;Helvetica Neue&quot;, Helvetica, Arial, sans-serif" xml:space="preserve">DiseaseID: </text><text class="speech-bubble-content property-key" x="14.139999389648438" y="-37" alignment-baseline="central" text-anchor="end" font-size="14px" font-family="&quot;Helvetica Neue&quot;, Helvetica, Arial, sans-serif" xml:space="preserve">DiseaseName: </text><text class="speech-bubble-content property-key" x="14.139999389648438" y="-23" alignment-baseline="central" text-anchor="end" font-size="14px" font-family="&quot;Helvetica Neue&quot;, Helvetica, Arial, sans-serif" xml:space="preserve">AltDiseaseIDs: </text><text class="speech-bubble-content property-value" x="14.139999389648438" y="-51" alignment-baseline="central" font-size="14px" font-family="&quot;Helvetica Neue&quot;, Helvetica, Arial, sans-serif">"Identifier"</text><text class="speech-bubble-content property-value" x="14.139999389648438" y="-37" alignment-baseline="central" font-size="14px" font-family="&quot;Helvetica Neue&quot;, Helvetica, Arial, sans-serif">""</text><text class="speech-bubble-content property-value" x="14.139999389648438" y="-23" alignment-baseline="central" font-size="14px" font-family="&quot;Helvetica Neue&quot;, Helvetica, Arial, sans-serif">""</text></g><g class="speech-bubble relationship-speech-bubble" transform="translate(121.06821186020665,-56.36561445538149) "><path class="speech-bubble-outline" transform="scale(-1,1) " d="M 0 0 L 16 12 L 149.01382446289062 12 A 4 4 0 0 1 153.01382446289062 16 L 153.01382446289062 72 A 4 4 0 0 1 149.01382446289062 76 L 16 76 A 4 4 0 0 1 12 72 L 12 16 Z" fill="rgb(255, 255, 255)" stroke="rgba(0, 0, 0, 0.5)" stroke-width="1px"/><text class="speech-bubble-content property-key" x="-27.927978515625" y="23" alignment-baseline="central" text-anchor="end" font-size="14px" font-family="&quot;Helvetica Neue&quot;, Helvetica, Arial, sans-serif" xml:space="preserve">Organism: </text><text class="speech-bubble-content property-key" x="-27.927978515625" y="37" alignment-baseline="central" text-anchor="end" font-size="14px" font-family="&quot;Helvetica Neue&quot;, Helvetica, Arial, sans-serif" xml:space="preserve">OrganismID: </text><text class="speech-bubble-content property-key" x="-27.927978515625" y="51" alignment-baseline="central" text-anchor="end" font-size="14px" font-family="&quot;Helvetica Neue&quot;, Helvetica, Arial, sans-serif" xml:space="preserve">Interaction: </text><text class="speech-bubble-content property-key" x="-27.927978515625" y="65" alignment-baseline="central" text-anchor="end" font-size="14px" font-family="&quot;Helvetica Neue&quot;, Helvetica, Arial, sans-serif" xml:space="preserve">InteractionActions: </text><text class="speech-bubble-content property-value" x="-27.927978515625" y="23" alignment-baseline="central" font-size="14px" font-family="&quot;Helvetica Neue&quot;, Helvetica, Arial, sans-serif">""</text><text class="speech-bubble-content property-value" x="-27.927978515625" y="37" alignment-baseline="central" font-size="14px" font-family="&quot;Helvetica Neue&quot;, Helvetica, Arial, sans-serif">""</text><text class="speech-bubble-content property-value" x="-27.927978515625" y="51" alignment-baseline="central" font-size="14px" font-family="&quot;Helvetica Neue&quot;, Helvetica, Arial, sans-serif">""</text><text class="speech-bubble-content property-value" x="-27.927978515625" y="65" alignment-baseline="central" font-size="14px" font-family="&quot;Helvetica Neue&quot;, Helvetica, Arial, sans-serif">""</text></g></g><g class="layer overlay"><circle class="node overlay" r="36.12647732119763" stroke="none" fill="rgba(255, 255, 255, 0)" cx="275.75769564115103" cy="121.74553885079757"/><circle class="node overlay" r="24.128932797192288" stroke="none" fill="rgba(255, 255, 255, 0)" cx="-30.999999999999996" cy="-231.4586067753047"/><circle class="node overlay" r="31.729490916344442" stroke="none" fill="rgba(255, 255, 255, 0)" cx="578.7576651235728" cy="-231.4586067753047"/><circle class="node ring" r="41.12647732119763" fill="none" stroke="rgba(255, 255, 255, 0)" stroke-width="10px" cx="275.75769564115103" cy="121.74553885079757"/><circle class="node ring" r="29.128932797192288" fill="none" stroke="rgba(255, 255, 255, 0)" stroke-width="10px" cx="-30.999999999999996" cy="-231.4586067753047"/><circle class="node ring" r="36.729490916344446" fill="none" stroke="rgba(255, 255, 255, 0)" stroke-width="10px" cx="578.7576651235728" cy="-231.4586067753047"/><path class="relationship overlay" fill="rgba(255, 255, 255, 0)" stroke="rgba(255, 255, 255, 0)" stroke-width="10px" transform="translate(-30.999999999999996,-231.4586067753047) rotate(0)" d="M 29.128932797192288 1 L 565.0281742072284 1 L 565.0281742072284 4 L 573.0281742072284 0 L 565.0281742072284 -4 L 565.0281742072284 -1 L 29.128932797192288 -1 Z"/><path class="relationship overlay" fill="rgba(255, 255, 255, 0)" stroke="rgba(255, 255, 255, 0)" stroke-width="10px" transform="translate(275.75769564115103,121.74553885079757) rotate(-49.375002597012774)" d="M 41.12647732119763 1 L 420.63289475079705 1 L 420.63289475079705 4 L 428.63289475079705 0 L 420.63289475079705 -4 L 420.63289475079705 -1 L 41.12647732119763 -1 Z"/><path class="relationship overlay" fill="rgba(255, 255, 255, 0)" stroke="rgba(255, 255, 255, 0)" stroke-width="10px" transform="translate(275.75769564115103,121.74553885079757) rotate(-130.9743051881352)" d="M 41.12647732119763 1 L 430.68882266163365 1 L 430.68882266163365 4 L 438.68882266163365 0 L 430.68882266163365 -4 L 430.68882266163365 -1 L 41.12647732119763 -1 Z"/><path class="relationship overlay" fill="rgba(255, 255, 255, 0)" stroke="rgba(255, 255, 255, 0)" stroke-width="10px" transform="translate(275.75769564115103,121.74553885079757) rotate(0)" d="M 41.12647732119763 1 L -33.12647732119763 1 L -33.12647732119763 4 L -41.12647732119763 0 L -33.12647732119763 -4 L -33.12647732119763 -1 L 41.12647732119763 -1 Z"/><path class="relationship overlay" fill="rgba(255, 255, 255, 0)" stroke="rgba(255, 255, 255, 0)" stroke-width="10px" transform="translate(578.7576651235728,-231.4586067753047) rotate(0)" d="M 36.729490916344446 1 L -28.729490916344446 1 L -28.729490916344446 4 L -36.729490916344446 0 L -28.729490916344446 -4 L -28.729490916344446 -1 L 36.729490916344446 -1 Z"/></g></svg>